<svg width="128" height="125" viewBox="0 0 128 125" fill="none" xmlns="http://www.w3.org/2000/svg">
<path id="Star" d="M72.0475 40.6483L72.2131 41.4346L72.8454 40.9387L103.578 16.8322L85.175 51.2844L84.7963 51.9932L85.5995 52.0197L124.638 53.3079L88.3944 67.8703L87.6487 68.1699L88.2469 68.7065L117.324 94.7866L80.1994 82.6452L79.4356 82.3954L79.549 83.191L85.0593 121.86L64.4245 88.6959L64 88.0135L63.5755 88.6959L42.9407 121.86L48.451 83.191L48.5644 82.3954L47.8006 82.6452L10.676 94.7866L39.753 68.7065L40.3513 68.1699L39.6056 67.8703L3.36224 53.3079L42.4005 52.0197L43.2037 51.9932L42.825 51.2844L24.4215 16.8322L55.1546 40.9387L55.7869 41.4346L55.9524 40.6483L64 2.4268L72.0475 40.6483Z" fill="#FBEBB4" stroke="#2E2E2E"/>
</svg>
